<svg xmlns="http://www.w3.org/2000/svg" version="1.1" xmlns:xlink="http://www.w3.org/1999/xlink" xmlns:svgjs="http://svgjs.dev/svgjs" width="1500" height="405" viewBox="0 0 1500 405"><g transform="matrix(1,0,0,1,-0.9084522071641459,-0.025781435177748335)"><svg viewBox="0 0 396 107" data-background-color="#a1b0f6" preserveAspectRatio="xMidYMid meet" height="405" width="1500" xmlns="http://www.w3.org/2000/svg" xmlns:xlink="http://www.w3.org/1999/xlink"><g id="tight-bounds" transform="matrix(1,0,0,1,0.24008861730862918,0.006811391516095)"><svg viewBox="0 0 395.52 106.98637721696782" height="106.98637721696782" width="395.52"><g><svg viewBox="0 0 395.52 106.98637721696782" height="106.98637721696782" width="395.52"><g><svg viewBox="0 0 395.52 106.98637721696782" height="106.98637721696782" width="395.52"><g id="textblocktransform"><svg viewBox="0 0 395.52 106.98637721696782" height="106.98637721696782" width="395.52" id="textblock"><g><svg viewBox="0 0 395.52 85.77001363756105" height="85.77001363756105" width="395.52"><path d="M394.594 18.396C392.735 9.493 387.435 7.018 387.435 7.018 371.165-2.152 350.86-0.175 332.619 1.142 300.414 1.196 268.339 3.154 236.208 4.205 168.767 4.365 100.749 1.73 33.643 8.229 27.339 10.223-6.54 8.621 1.121 19.536 3.129 24.076 10.456 29.115 10.232 33.282 11.236 34.012 12.631 32.338 13.226 33.389 15.309 36.22 18.711 34.884 21.501 36.558 17.614 41.027 20.403 44.749 23.062 48.648 18.377 49.663 12.371 49.182 9.675 52.548 9.396 54.987 7.89 54.524 6.235 54.417 5.026 54.346 2.59 54.613 2.999 55.379 4.394 57.996-1.594 59.51 2.162 62.074-0.422 64.851 3.948 67.255 3.353 70.264 3.278 70.87 3.687 71.386 4.338 71.529 7.22 72.294 3.018 73.79 3.464 75.41 33.029 86.485 65.104 78.829 95.394 83.921 103.259 80.36 97.346 85.186 100.489 84.438 102.943 83.565 104.728 87.18 107.499 85.132 107.927 84.545 107.276 83.156 108.8 83.423 109.6 83.565 110.307 83.53 110.418 82.711 110.586 81.482 109.117 82.248 108.726 81.607 112.947 78.366 111.906 86.076 115.866 85.755 115.68 84.812 114.528 83.458 116.889 83.636 119.232 82.283 119.306 81.161 121.389 84.206 121.463 84.865 121.835 85.328 122.43 85.649 128.938 82.337 135.409 86.824 142.233 85.328 146.417 83.69 150.433 86.218 154.672 85.595 156.16 85.097 157.666 84.206 159.098 85.702 176.632 86.022 195.319 84.687 211.943 85.755 256.364 83.761 303.836 86.574 350.674 83.939 361.719 82.924 373.192 81.482 383.958 80.325 383.958 80.325 392.679 77.155 392.679 62.911S394.538 50.446 394.817 39.104C395.096 27.762 396.398 27.299 394.538 18.396Z" opacity="1" fill="#223fc0" data-fill-palette-color="tertiary"></path><g transform="matrix(1,0,0,1,55.76832,26.068561146666667)"><svg width="283.98335999999995" viewBox="3.4 -32.3 284.53000000000003 33.699999999999996" height="33.63289134422772" data-palette-color="#a1b0f6"><path d="M3.4 0.5L3.7-1.8Q5.65-2.1 6.38-2.98 7.1-3.85 7.1-6L7.1-6 7.15-27Q7.15-28.6 6.78-29.15 6.4-29.7 5.3-29.7L5.3-29.7Q4.8-29.7 4.3-29.65 3.8-29.6 3.6-29.6L3.6-29.6 3.5-29.8 3.85-32Q4.45-31.95 6.1-31.9 7.75-31.85 9.45-31.85L9.45-31.85Q10.8-31.85 12.53-32.02 14.25-32.2 14.8-32.3L14.8-32.3 14.6-30.05Q12.95-29.85 12.33-29.4 11.7-28.95 11.58-28.35 11.45-27.75 11.3-25.4L11.3-25.4Q11-21.15 10.85-15.7 10.7-10.25 10.7-6.1L10.7-6.1Q10.7-4.3 11-3.53 11.3-2.75 12.13-2.5 12.95-2.25 14.95-2.25L14.95-2.25Q18-2.25 19.43-2.75 20.85-3.25 21.58-4.7 22.3-6.15 22.9-9.35L22.9-9.35 25.1-9.6 25.25-9.35Q25.1-8.55 24.63-5.75 24.15-2.95 23.8 0.15L23.8 0.15 23.55 0.45Q22.1 0.35 17.57 0.18 13.05 0 10.1 0L10.1 0Q7.75 0 5.83 0.2 3.9 0.4 3.4 0.5L3.4 0.5ZM27 0.45L27.25-1.6Q29.15-1.95 29.8-2.63 30.45-3.3 30.45-4.95L30.45-4.95 30.5-20.85Q30.5-22.1 30.2-22.53 29.9-22.95 29-22.95L29-22.95 27.35-22.9 27.25-23.1 27.5-25Q27.8-25 29.12-24.95 30.45-24.9 32.6-24.9L32.6-24.9Q33.75-24.9 35.42-25.05 37.1-25.2 37.6-25.25L37.6-25.25 37.4-23.2Q35.75-23 35.2-22.58 34.65-22.15 34.55-21L34.55-21Q34.35-17 34.17-12.15 34-7.3 34-4.65L34-4.65Q34-3.05 34.35-2.5 34.7-1.95 35.75-1.95L35.75-1.95Q36.45-1.95 37.02-2 37.6-2.05 37.8-2.1L37.8-2.1 37.9-1.9 37.55 0.1Q36.95 0.1 35.3 0.05 33.65 0 32 0L32 0Q30.65 0 29.07 0.18 27.5 0.35 27 0.45L27 0.45ZM63.4-6.8L63.34-21.25Q63.34-22.9 62-22.9L62-22.9 60.5-22.9 60.4-23.1 60.75-25.05Q61.2-25 62.45-24.95 63.7-24.9 65-24.9L65-24.9Q66.09-24.9 67.47-25.03 68.84-25.15 69.25-25.2L69.25-25.2 69.05-23.15Q67.59-22.95 66.97-22.38 66.34-21.8 66.3-20.65L66.3-20.65 65.7 0.85 63.75 1.4Q59-5.55 54.15-12.2 49.3-18.85 49.3-18.75L49.3-18.75 49.05-18.75 48.9-3.6Q48.9-2.65 49.2-2.3 49.5-1.95 50.2-1.95L50.2-1.95 52.2-2 52.34-1.85 51.95 0.15Q51.5 0.1 50.17 0.05 48.84 0 47.4 0L47.4 0Q46.25 0 44.95 0.13 43.65 0.25 43.25 0.3L43.25 0.3 43.5-1.75Q44.75-1.9 45.34-2.48 45.95-3.05 46-4.2L46-4.2 46.55-20.7Q46.55-21.95 45.82-22.43 45.09-22.9 43.05-23.15L43.05-23.15 42.84-23.4 43.2-25.1Q43.59-25.05 44.72-24.98 45.84-24.9 47-24.9L47-24.9Q48.09-24.9 48.95-24.95 49.8-25 50.05-25.05L50.05-25.05Q54.09-19.1 58.62-12.9 63.15-6.7 63.15-6.8L63.15-6.8 63.4-6.8ZM77.14-20.85Q77.14-22.1 76.84-22.53 76.54-22.95 75.64-22.95L75.64-22.95 74.29-22.9 74.14-23.1 74.44-25Q74.99-25 76.44-24.95 77.89-24.9 79.24-24.9L79.24-24.9Q80.34-24.9 81.89-25.05 83.44-25.2 83.94-25.25L83.94-25.25 83.79-23.2Q82.24-22.95 81.69-22.48 81.14-22 81.09-20.9L81.09-20.9 80.64-4.65Q80.59-3.05 80.97-2.5 81.34-1.95 82.39-1.95L82.39-1.95Q82.99-1.95 83.49-2 83.99-2.05 84.14-2.1L84.14-2.1 84.24-1.9 83.89 0.1Q83.34 0.1 81.79 0.05 80.24 0 78.64 0L78.64 0 73.69 0.05 74.09-1.95Q75.99-2.15 76.54-2.7 77.09-3.25 77.09-4.95L77.09-4.95 77.14-20.85ZM81.79-12.95L88.79-19.9Q89.99-21.05 89.99-21.85L89.99-21.85Q89.99-22.9 87.54-23.05L87.54-23.05 87.44-23.25 87.74-25.15Q88.24-25.1 89.84-25 91.44-24.9 92.39-24.9L92.39-24.9Q93.69-24.9 94.87-24.95 96.04-25 96.44-25.05L96.44-25.05 96.64-24.75 96.34-22.95Q95.24-22.65 94.27-21.93 93.29-21.2 91.44-19.3L91.44-19.3 85.44-13.35 91.94-5.05Q93.39-3.25 94.52-2.5 95.64-1.75 97.04-1.7L97.04-1.7 97.24-1.45 96.99 0.1Q96.49 0.15 95.27 0.33 94.04 0.5 93.24 0.55L93.24 0.55Q91.04 0.55 88.64-2.75L88.64-2.75 81.74-12.3 81.79-12.95ZM99.49-0.3L103.44-4.7Q107.64-9.45 109.62-12.73 111.59-16 111.59-18.1L111.59-18.1Q111.59-19.9 110.59-20.9 109.59-21.9 107.84-21.9L107.84-21.9Q106.14-21.9 104.49-20.7 102.84-19.5 101.69-17.45L101.69-17.45 101.24-17.45 100.69-19.7Q101.94-22.1 104.34-23.68 106.74-25.25 109.14-25.25L109.14-25.25Q112.24-25.25 114.12-23.6 115.99-21.95 115.99-19.25L115.99-19.25Q115.99-17.75 115.02-15.83 114.04-13.9 111.79-11 109.54-8.1 105.34-3.4L105.34-3.4 105.54-3.05 113.19-3.05Q115.09-3.05 116.09-3.4 117.09-3.75 117.69-4.7 118.29-5.65 118.79-7.6L118.79-7.6 120.79-7.85Q120.59-7.15 120.09-4.73 119.59-2.3 119.34 0L119.34 0 118.74 0.35Q116.84 0.3 111.12 0.15 105.39 0 102.69 0L102.69 0 99.99 0.6 99.49-0.3ZM147.49 0.8Q146.24 0.8 144.81-0.48 143.39-1.75 142.19-3.95L142.19-3.95 136.84-13.65 132.69-13.65 132.54-6.2Q132.54-4.3 132.79-3.48 133.04-2.65 133.74-2.38 134.44-2.1 136.14-2.1L136.14-2.1 136.24-1.9 135.79 0.2Q135.19 0.15 133.39 0.1 131.59 0.05 129.64 0.05L129.64 0.05Q127.89 0.05 126.54 0.1 125.19 0.15 124.74 0.2L124.74 0.2 125.19-2.05Q126.79-2.25 127.59-2.6 128.39-2.95 128.69-3.73 128.99-4.5 128.99-6L128.99-6 129.04-27Q129.04-28.6 128.66-29.15 128.29-29.7 127.19-29.7L127.19-29.7Q126.69-29.7 126.19-29.65 125.69-29.6 125.49-29.6L125.49-29.6 125.39-29.8 125.74-32Q126.34-31.95 127.99-31.9 129.64-31.85 131.29-31.85L131.29-31.85Q132.99-31.85 134.86-31.93 136.74-32 137.44-32.05L137.44-32.05Q142.09-32.05 144.79-29.95 147.49-27.85 147.49-24.2L147.49-24.2Q147.49-21.2 145.56-18.7 143.64-16.2 140.14-14.6L140.14-14.6 145.64-5.9Q147.09-3.5 148.46-2.58 149.84-1.65 151.84-1.65L151.84-1.65 152.04-1.45 151.74 0.25 147.49 0.8ZM137.94-15.95Q137.94-15.8 139.44-16.6 140.94-17.4 142.14-19.05 143.34-20.7 143.34-23.3L143.34-23.3Q143.34-29.9 134.19-29.9L134.19-29.9Q133.69-29.9 133.51-29.68 133.34-29.45 133.29-28.75L133.29-28.75Q132.84-21.1 132.79-16.45L132.79-16.45 137.94-15.95ZM155.14 0.4L155.39-1.7Q157.24-1.9 157.89-2.6 158.54-3.3 158.54-5L158.54-5 158.59-20.85Q158.59-22.1 158.29-22.53 157.99-22.95 157.09-22.95L157.09-22.95 155.74-22.9 155.64-23.1 155.94-25Q156.54-25 158.29-24.95 160.04-24.9 162.09-24.9L162.09-24.9Q170.44-24.9 174.44-25.35L174.44-25.35 174.59-25.1Q174.49-24.55 174.14-22.6 173.79-20.65 173.64-18.4L173.64-18.4 171.24-18.2Q171.24-18.4 171.29-18.88 171.34-19.35 171.34-19.85L171.34-19.85Q171.34-21.15 170.96-21.68 170.59-22.2 169.41-22.38 168.24-22.55 165.34-22.55L165.34-22.55Q163.99-22.55 163.49-22.48 162.99-22.4 162.84-22.13 162.69-21.85 162.64-21.1L162.64-21.1 162.34-14 166.44-13.95Q167.34-13.95 169.09-14.13 170.84-14.3 171.39-14.35L171.39-14.35 171.59-14.1 170.99-11.5Q170.44-11.5 168.81-11.55 167.19-11.6 165.39-11.6L165.39-11.6Q163.99-11.6 162.24-11.35L162.24-11.35Q162.09-7.55 162.09-4.5L162.09-4.5Q162.09-3.35 162.26-2.9 162.44-2.45 163.06-2.3 163.69-2.15 165.14-2.15L165.14-2.15Q168.39-2.15 169.79-2.45 171.19-2.75 171.76-3.68 172.34-4.6 172.69-6.85L172.69-6.85 174.89-7.05 175.09-6.8Q174.94-6.25 174.56-4.23 174.19-2.2 173.99 0L173.99 0 173.69 0.25Q172.34 0.2 168.09 0.1 163.84 0 161.19 0L161.19 0Q159.14 0 157.39 0.18 155.64 0.35 155.14 0.4L155.14 0.4ZM187.38 0.45Q185.63 0.45 184.16 0.15 182.68-0.15 181.81-0.48 180.93-0.8 180.73-0.9L180.73-0.9 180.48-1.35Q180.53-1.6 180.66-2.48 180.78-3.35 180.91-4.93 181.03-6.5 181.03-8.1L181.03-8.1 183.28-8.3Q183.28-5.6 183.71-4.28 184.13-2.95 185.18-2.45 186.23-1.95 188.38-1.95L188.38-1.95Q190.78-1.95 192.26-3 193.73-4.05 193.73-5.8L193.73-5.8Q193.73-6.95 192.91-7.83 192.08-8.7 191.01-9.3 189.93-9.9 187.58-11.05L187.58-11.05Q184.38-12.6 182.66-14.1 180.93-15.6 180.93-17.95L180.93-17.95Q180.93-20.05 182.21-21.75 183.48-23.45 185.73-24.4 187.98-25.35 190.73-25.35L190.73-25.35Q192.38-25.35 193.83-25.15 195.28-24.95 196.13-24.73 196.98-24.5 197.18-24.4L197.18-24.4 197.38-24.05Q197.28-23.5 196.93-21.58 196.58-19.65 196.43-17.45L196.43-17.45 194.48-17.25 194.18-17.45Q194.18-17.6 194.23-18.07 194.28-18.55 194.28-19.25L194.28-19.25Q194.28-21.2 193.26-21.98 192.23-22.75 189.63-22.75L189.63-22.75Q187.53-22.75 186.16-21.78 184.78-20.8 184.78-19.3L184.78-19.3Q184.78-17.8 186.16-16.75 187.53-15.7 190.33-14.35L190.33-14.35Q192.78-13.2 194.26-12.35 195.73-11.5 196.78-10.2 197.83-8.9 197.83-7.2L197.83-7.2Q197.83-4.95 196.51-3.23 195.18-1.5 192.81-0.53 190.43 0.45 187.38 0.45L187.38 0.45ZM214.63 0.45Q210.18 0.45 207.86-1.75 205.53-3.95 205.53-8.1L205.53-8.1 205.53-20.85Q205.53-22.1 205.23-22.53 204.93-22.95 204.03-22.95L204.03-22.95 202.68-22.9 202.58-23.05 202.88-25Q203.43-25 204.88-24.95 206.33-24.9 207.83-24.9L207.83-24.9Q208.93-24.9 210.38-25.03 211.83-25.15 212.28-25.2L212.28-25.2 212.08-23.2Q210.63-23 210.13-22.55 209.63-22.1 209.53-21L209.53-21 209.23-9.55Q209.23-6 210.88-4.08 212.53-2.15 215.63-2.15L215.63-2.15Q218.78-2.15 220.41-3.73 222.03-5.3 222.03-8.3L222.03-8.3Q222.03-11.4 221.96-15.33 221.88-19.25 221.83-20.85L221.83-20.85Q221.73-22.2 221.48-22.58 221.23-22.95 220.38-22.95L220.38-22.95 218.68-22.9 218.63-23.05 218.93-25Q219.43-25 220.81-24.95 222.18-24.9 223.58-24.9L223.58-24.9Q224.73-24.9 226.06-25.03 227.38-25.15 227.78-25.2L227.78-25.2 227.63-23.2Q225.88-22.95 225.38-22.55 224.88-22.15 224.88-21.05L224.88-21.05 224.88-8.25Q224.88-4.1 222.21-1.83 219.53 0.45 214.63 0.45L214.63 0.45ZM246.08 0.7Q241.03-13 238.53-19.35L238.53-19.35 238.28-19.35Q238.08-16.95 237.55-10.4 237.03-3.85 237.03-3.2L237.03-3.2Q237.03-2.55 237.33-2.27 237.63-2 238.33-2L238.33-2 239.93-2 240.03-1.85 239.68 0.15Q239.23 0.15 237.95 0.08 236.68 0 235.43 0L235.43 0Q234.43 0 233.28 0.13 232.13 0.25 231.78 0.3L231.78 0.3 231.98-1.75Q233.28-1.9 233.83-2.53 234.38-3.15 234.58-4.7L234.58-4.7Q234.98-8.1 235.65-14.25 236.33-20.4 236.33-21.15L236.33-21.15Q236.33-22.15 235.55-22.63 234.78-23.1 232.88-23.2L232.88-23.2 232.73-23.45 233.08-25.1Q233.63-25.05 235.03-24.98 236.43-24.9 237.73-24.9L237.73-24.9Q238.83-24.9 239.75-24.95 240.68-25 240.98-25.05L240.98-25.05Q242.48-20.4 243.9-16.32 245.33-12.25 246.25-9.83 247.18-7.4 247.43-6.8L247.43-6.8 247.68-6.8Q248.23-8.2 250.15-13.35 252.08-18.5 254.33-24.95L254.33-24.95Q254.63-25 255.1-24.98 255.58-24.95 256.03-24.95L256.03-24.95Q256.58-24.9 257.63-24.9L257.63-24.9Q258.43-24.9 259.95-25 261.48-25.1 261.98-25.15L261.98-25.15 262.08-25 261.83-23.25Q260.08-23.05 259.38-22.58 258.68-22.1 258.68-21.1L258.68-21.1Q258.68-20.1 259.03-14.75 259.38-9.4 259.73-5.65L259.73-5.65Q259.98-3.4 260.38-2.7 260.78-2 261.73-2L261.73-2 262.88-2.05 262.98-1.9 262.63 0.1Q262.23 0.1 261.08 0.05 259.93 0 258.63 0L258.63 0Q257.33 0 255.68 0.15 254.03 0.3 253.93 0.3L253.93 0.3 254.13-1.75Q255.43-1.9 255.98-2.35 256.53-2.8 256.53-3.7L256.53-3.7Q256.53-4.6 256-10.85 255.48-17.1 255.28-19.35L255.28-19.35 255.03-19.35Q252.08-11.8 247.53 0.4L247.53 0.4 246.08 0.7ZM267.98 0.4L268.23-1.7Q270.08-1.9 270.73-2.6 271.38-3.3 271.38-5L271.38-5 271.43-20.85Q271.43-22.1 271.13-22.53 270.83-22.95 269.93-22.95L269.93-22.95 268.58-22.9 268.48-23.1 268.78-25Q269.38-25 271.13-24.95 272.88-24.9 274.93-24.9L274.93-24.9Q283.28-24.9 287.28-25.35L287.28-25.35 287.43-25.1Q287.33-24.55 286.98-22.6 286.63-20.65 286.48-18.4L286.48-18.4 284.08-18.2Q284.08-18.4 284.13-18.88 284.18-19.35 284.18-19.85L284.18-19.85Q284.18-21.15 283.8-21.68 283.43-22.2 282.25-22.38 281.08-22.55 278.18-22.55L278.18-22.55Q276.83-22.55 276.33-22.48 275.83-22.4 275.68-22.13 275.53-21.85 275.48-21.1L275.48-21.1 275.18-14 279.28-13.95Q280.18-13.95 281.93-14.13 283.68-14.3 284.23-14.35L284.23-14.35 284.43-14.1 283.83-11.5Q283.28-11.5 281.65-11.55 280.03-11.6 278.23-11.6L278.23-11.6Q276.83-11.6 275.08-11.35L275.08-11.35Q274.93-7.55 274.93-4.5L274.93-4.5Q274.93-3.35 275.1-2.9 275.28-2.45 275.9-2.3 276.53-2.15 277.98-2.15L277.98-2.15Q281.23-2.15 282.63-2.45 284.03-2.75 284.6-3.68 285.18-4.6 285.53-6.85L285.53-6.85 287.73-7.05 287.93-6.8Q287.78-6.25 287.4-4.23 287.03-2.2 286.83 0L286.83 0 286.53 0.25Q285.18 0.2 280.93 0.1 276.68 0 274.03 0L274.03 0Q271.98 0 270.23 0.18 268.48 0.35 267.98 0.4L267.98 0.4Z" opacity="1" transform="matrix(1,0,0,1,0,0)" fill="#a1b0f6" class="wordmark-text-0" data-fill-palette-color="quaternary" id="text-0"></path></svg></g></svg></g><g transform="matrix(1,0,0,1,75.54432,93.70993209454096)"><svg viewBox="0 0 244.43135999999998 13.27644512242687" height="13.27644512242687" width="244.43135999999998"><g transform="matrix(1,0,0,1,0,0)"><svg width="244.43135999999998" viewBox="0.05 -37.35 692.19 37.6" height="13.27644512242687" data-palette-color="#223fc0"><path d="M15.55-7.4L0.05-35 6-35 16-17.7 25.8-35 31.8-35 16.4-7.4 15.55-7.4ZM13.1 0L13.1-14.75 18.95-14.75 18.95 0 13.1 0ZM47.5-26.75L47.5-26.75Q51.6-26.75 54.72-25.05 57.85-23.35 59.6-20.33 61.35-17.3 61.35-13.3L61.35-13.3Q61.35-9.3 59.6-6.25 57.85-3.2 54.72-1.5 51.6 0.2 47.5 0.2L47.5 0.2Q43.4 0.2 40.25-1.5 37.1-3.2 35.35-6.25 33.6-9.3 33.6-13.3L33.6-13.3Q33.6-17.3 35.35-20.33 37.1-23.35 40.25-25.05 43.4-26.75 47.5-26.75ZM47.5-22.1L47.5-22.1Q45.1-22.1 43.25-20.98 41.4-19.85 40.37-17.85 39.35-15.85 39.35-13.25L39.35-13.25Q39.35-10.6 40.37-8.6 41.4-6.6 43.25-5.48 45.1-4.35 47.5-4.35L47.5-4.35Q49.9-4.35 51.72-5.48 53.55-6.6 54.57-8.6 55.6-10.6 55.6-13.25L55.6-13.25Q55.6-15.85 54.57-17.85 53.55-19.85 51.72-20.98 49.9-22.1 47.5-22.1ZM72.25-26.55L72.25-11.55Q72.25-8.45 73.89-6.68 75.55-4.9 78.44-4.9L78.44-4.9Q81.89-5 83.82-7.45 85.75-9.9 85.75-13.5L85.75-13.5 87.3-13.5Q87.3-8.6 85.94-5.6 84.59-2.6 82.12-1.23 79.64 0.15 76.25 0.2L76.25 0.2Q73.19 0.2 71.02-1.05 68.84-2.3 67.67-4.6 66.5-6.9 66.5-10.05L66.5-10.05 66.5-26.55 72.25-26.55ZM85.75 0L85.75-26.55 91.5-26.55 91.5 0 85.75 0ZM114.94-26.75L114.94-21.55Q112.09-21.7 110.02-20.58 107.94-19.45 106.82-17.45 105.69-15.45 105.69-12.85L105.69-12.85 104.09-13.05Q104.09-17.5 105.39-20.55 106.69-23.6 109.14-25.18 111.59-26.75 114.94-26.75L114.94-26.75ZM99.99 0L99.99-26.55 105.74-26.55 105.74 0 99.99 0ZM133.54-35L147.49-35Q154.09-35 157.71-31.88 161.34-28.75 161.34-23.1L161.34-23.1Q161.34-17.2 157.71-13.93 154.09-10.65 147.49-10.65L147.49-10.65 136.84-10.65 139.44-13.25 139.44 0 133.54 0 133.54-35ZM136.84-15.7L147.24-15.7Q151.29-15.7 153.49-17.48 155.69-19.25 155.69-22.95L155.69-22.95Q155.69-26.5 153.49-28.23 151.29-29.95 147.24-29.95L147.24-29.95 136.84-29.95 139.44-32.55 139.44-13.1 136.84-15.7ZM168.99-15.2L185.24-15.2Q185.14-17.45 184.21-19.03 183.29-20.6 181.64-21.48 179.99-22.35 177.84-22.35L177.84-22.35Q175.44-22.35 173.66-21.25 171.89-20.15 170.89-18.18 169.89-16.2 169.89-13.55L169.89-13.55Q169.89-10.7 170.96-8.6 172.03-6.5 173.96-5.35 175.89-4.2 178.39-4.2L178.39-4.2Q182.84-4.2 185.89-7.35L185.89-7.35 188.94-4.3Q186.99-2.15 184.19-0.98 181.39 0.2 177.94 0.2L177.94 0.2Q173.84 0.2 170.78-1.5 167.74-3.2 166.03-6.23 164.34-9.25 164.34-13.25L164.34-13.25Q164.34-17.25 166.03-20.28 167.74-23.3 170.78-25 173.84-26.7 177.78-26.75L177.78-26.75Q182.49-26.75 185.34-24.83 188.19-22.9 189.39-19.4 190.59-15.9 190.24-11.1L190.24-11.1 168.99-11.1 168.99-15.2ZM211.18-26.75L211.18-21.55Q208.33-21.7 206.26-20.58 204.18-19.45 203.06-17.45 201.93-15.45 201.93-12.85L201.93-12.85 200.33-13.05Q200.33-17.5 201.63-20.55 202.93-23.6 205.38-25.18 207.83-26.75 211.18-26.75L211.18-26.75ZM196.23 0L196.23-26.55 201.98-26.55 201.98 0 196.23 0ZM217.03 0L217.03-28.2Q217.03-31.35 218.36-33.38 219.68-35.4 221.78-36.38 223.88-37.35 226.18-37.35L226.18-37.35Q227.38-37.35 228.61-37.02 229.83-36.7 230.88-36.15L230.88-36.15 229.68-31.75Q228.98-32.05 228.11-32.33 227.23-32.6 226.33-32.6L226.33-32.6Q225.38-32.6 224.56-32.23 223.73-31.85 223.23-31.03 222.73-30.2 222.73-28.9L222.73-28.9 222.73 0 217.03 0ZM213.53-21.5L213.53-25.6 229.68-25.6 229.68-21.5 213.53-21.5ZM235.83-15.2L252.08-15.2Q251.98-17.45 251.05-19.03 250.13-20.6 248.48-21.48 246.83-22.35 244.68-22.35L244.68-22.35Q242.28-22.35 240.5-21.25 238.73-20.15 237.73-18.18 236.73-16.2 236.73-13.55L236.73-13.55Q236.73-10.7 237.8-8.6 238.88-6.5 240.8-5.35 242.73-4.2 245.23-4.2L245.23-4.2Q249.68-4.2 252.73-7.35L252.73-7.35 255.78-4.3Q253.83-2.15 251.03-0.98 248.23 0.2 244.78 0.2L244.78 0.2Q240.68 0.2 237.63-1.5 234.58-3.2 232.88-6.23 231.18-9.25 231.18-13.25L231.18-13.25Q231.18-17.25 232.88-20.28 234.58-23.3 237.63-25 240.68-26.7 244.63-26.75L244.63-26.75Q249.33-26.75 252.18-24.83 255.03-22.9 256.23-19.4 257.43-15.9 257.08-11.1L257.08-11.1 235.83-11.1 235.83-15.2ZM284.97-22.65L281.82-18.95Q280.43-20.4 278.52-21.2 276.63-22 274.22-22L274.22-22Q271.93-22 270.13-20.9 268.32-19.8 267.32-17.82 266.32-15.85 266.32-13.25L266.32-13.25Q266.32-10.65 267.32-8.68 268.32-6.7 270.13-5.58 271.93-4.45 274.22-4.45L274.22-4.45Q276.72-4.45 278.72-5.28 280.72-6.1 282.07-7.7L282.07-7.7 285.27-4.55Q283.47-2.3 280.6-1.05 277.72 0.2 273.97 0.2L273.97 0.2Q270.02 0.2 267-1.5 263.97-3.2 262.27-6.23 260.57-9.25 260.57-13.25L260.57-13.25Q260.57-17.25 262.27-20.28 263.97-23.3 267-25.03 270.02-26.75 273.97-26.75L273.97-26.75Q277.57-26.75 280.35-25.68 283.13-24.6 284.97-22.65L284.97-22.65ZM298.02-32.85L298.02-8.4Q298.02-6.25 298.77-5.48 299.52-4.7 300.87-4.7L300.87-4.7Q301.77-4.7 302.75-5 303.72-5.3 304.87-5.9L304.87-5.9 306.32-1.75Q304.77-0.8 303.12-0.28 301.47 0.25 299.77 0.25L299.77 0.25Q297.77 0.25 296.07-0.53 294.37-1.3 293.35-3 292.32-4.7 292.32-7.4L292.32-7.4 292.32-32.85 298.02-32.85ZM288.57-21.5L288.57-25.6 305.87-25.6 305.87-21.5 288.57-21.5ZM325.47-35L339.67-35Q346.42-35 350.09-31.88 353.77-28.75 353.77-23.1L353.77-23.1Q353.77-17.2 350.09-13.93 346.42-10.65 339.67-10.65L339.67-10.65 331.37-10.65 331.37 0 325.47 0 325.47-35ZM331.37-15.7L339.67-15.7Q343.72-15.7 345.94-17.48 348.17-19.25 348.17-22.95L348.17-22.95Q348.17-26.5 345.94-28.23 343.72-29.95 339.67-29.95L339.67-29.95 331.37-29.95 331.37-15.7ZM347.67 0L339.87-12.95 345.67-12.95 354.37 0 347.67 0ZM363.41-15.2L379.66-15.2Q379.56-17.45 378.64-19.03 377.71-20.6 376.06-21.48 374.41-22.35 372.26-22.35L372.26-22.35Q369.87-22.35 368.09-21.25 366.31-20.15 365.31-18.18 364.31-16.2 364.31-13.55L364.31-13.55Q364.31-10.7 365.39-8.6 366.46-6.5 368.39-5.35 370.31-4.2 372.81-4.2L372.81-4.2Q377.26-4.2 380.31-7.35L380.31-7.35 383.37-4.3Q381.41-2.15 378.62-0.98 375.81 0.2 372.37 0.2L372.37 0.2Q368.26 0.2 365.21-1.5 362.16-3.2 360.46-6.23 358.76-9.25 358.76-13.25L358.76-13.25Q358.76-17.25 360.46-20.28 362.16-23.3 365.21-25 368.26-26.7 372.21-26.75L372.21-26.75Q376.91-26.75 379.76-24.83 382.62-22.9 383.81-19.4 385.01-15.9 384.66-11.1L384.66-11.1 363.41-11.1 363.41-15.2ZM407.91-24.15L405.81-20.1Q404.06-21.15 401.99-21.78 399.91-22.4 398.16-22.4L398.16-22.4Q396.46-22.4 395.36-21.75 394.26-21.1 394.26-19.6L394.26-19.6Q394.26-18.35 395.29-17.63 396.31-16.9 397.91-16.4 399.51-15.9 401.31-15.35 403.11-14.8 404.74-13.93 406.36-13.05 407.36-11.55 408.36-10.05 408.36-7.6L408.36-7.6Q408.36-4.9 406.94-3.18 405.51-1.45 403.19-0.63 400.86 0.2 398.16 0.2L398.16 0.2Q395.26 0.2 392.36-0.75 389.46-1.7 387.46-3.5L387.46-3.5 389.51-7.4Q391.26-5.85 393.76-4.98 396.26-4.1 398.41-4.1L398.41-4.1Q399.66-4.1 400.64-4.42 401.61-4.75 402.19-5.4 402.76-6.05 402.76-7.1L402.76-7.1Q402.76-8.5 401.76-9.3 400.76-10.1 399.16-10.63 397.56-11.15 395.76-11.68 393.96-12.2 392.39-13.05 390.81-13.9 389.81-15.35 388.81-16.8 388.81-19.2L388.81-19.2Q388.81-21.9 390.21-23.58 391.61-25.25 393.84-26.03 396.06-26.8 398.61-26.8L398.61-26.8Q401.11-26.8 403.61-26.1 406.11-25.4 407.91-24.15L407.91-24.15ZM419.06-26.55L419.06-11.55Q419.06-8.45 420.71-6.68 422.36-4.9 425.26-4.9L425.26-4.9Q428.71-5 430.63-7.45 432.56-9.9 432.56-13.5L432.56-13.5 434.11-13.5Q434.11-8.6 432.76-5.6 431.41-2.6 428.93-1.23 426.46 0.15 423.06 0.2L423.06 0.2Q420.01 0.2 417.83-1.05 415.66-2.3 414.48-4.6 413.31-6.9 413.31-10.05L413.31-10.05 413.31-26.55 419.06-26.55ZM432.56 0L432.56-26.55 438.31-26.55 438.31 0 432.56 0ZM466.16 0L466.16-15Q466.16-18.15 464.51-19.93 462.86-21.7 459.91-21.7L459.91-21.7Q456.46-21.6 454.48-19.15 452.51-16.7 452.51-13.1L452.51-13.1 450.91-13.1Q450.91-18 452.28-21 453.66-24 456.18-25.38 458.71-26.75 462.16-26.75L462.16-26.75Q465.21-26.75 467.38-25.5 469.56-24.25 470.73-21.98 471.91-19.7 471.91-16.5L471.91-16.5 471.91 0 466.16 0ZM485.51 0L485.51-15Q485.51-18.15 483.83-19.93 482.16-21.7 479.21-21.7L479.21-21.7Q475.81-21.6 473.86-19.15 471.91-16.7 471.91-13.1L471.91-13.1 470.26-13.1Q470.26-18 471.63-21 473.01-24 475.53-25.38 478.06-26.75 481.51-26.75L481.51-26.75Q484.56-26.75 486.73-25.5 488.91-24.25 490.08-21.98 491.26-19.7 491.26-16.5L491.26-16.5 491.26 0 485.51 0ZM446.81 0L446.81-26.55 452.51-26.55 452.51 0 446.81 0ZM501.1-15.2L517.36-15.2Q517.25-17.45 516.33-19.03 515.4-20.6 513.75-21.48 512.11-22.35 509.95-22.35L509.95-22.35Q507.56-22.35 505.78-21.25 504-20.15 503-18.18 502-16.2 502-13.55L502-13.55Q502-10.7 503.08-8.6 504.15-6.5 506.08-5.35 508-4.2 510.5-4.2L510.5-4.2Q514.95-4.2 518-7.35L518-7.35 521.05-4.3Q519.11-2.15 516.3-0.98 513.5 0.2 510.06 0.2L510.06 0.2Q505.95 0.2 502.9-1.5 499.85-3.2 498.15-6.23 496.45-9.25 496.45-13.25L496.45-13.25Q496.45-17.25 498.15-20.28 499.85-23.3 502.9-25 505.95-26.7 509.9-26.75L509.9-26.75Q514.61-26.75 517.45-24.83 520.3-22.9 521.5-19.4 522.7-15.9 522.36-11.1L522.36-11.1 501.1-11.1 501.1-15.2ZM542.2 0L542.2-35 549.05-35 561.15-11.25 573.15-35 580-35 580 0 574.55 0 574.5-26.75 563-3.65 559.25-3.65 547.65-26.75 547.65 0 542.2 0ZM605.5-11.85L597.55-11.85Q594.75-11.85 593.4-11 592.05-10.15 592.05-8.2L592.05-8.2Q592.05-6.35 593.42-5.25 594.8-4.15 597.2-4.15L597.2-4.15Q599.35-4.15 601.05-4.9 602.75-5.65 603.75-6.93 604.75-8.2 604.8-9.8L604.8-9.8 605.9-4.95Q604.65-2.35 602.1-1.05 599.55 0.25 596 0.25L596 0.25Q593.15 0.25 591.05-0.85 588.95-1.95 587.8-3.83 586.65-5.7 586.65-8L586.65-8Q586.65-11.6 589.27-13.75 591.9-15.9 596.7-15.95L596.7-15.95 605.5-15.95 605.5-11.85ZM604.8 0L604.75-16.85Q604.75-19.45 603.15-20.9 601.55-22.35 598.4-22.35L598.4-22.35Q596.5-22.35 594.52-21.65 592.55-20.95 590.55-19.6L590.55-19.6 588.2-23.3Q590.05-24.45 591.7-25.2 593.35-25.95 595.22-26.35 597.1-26.75 599.65-26.75L599.65-26.75Q604.8-26.75 607.57-24.28 610.35-21.8 610.4-17.45L610.4-17.45 610.45 0 604.8 0ZM618.39 0L618.39-37.1 624.14-37.1 624.14 0 618.39 0ZM623.69-13.9L635.89-26.55 642.49-26.55 623.69-7.05 623.69-13.9ZM627.84-13.65L632.09-17.1 643.24 0 636.44 0 627.84-13.65ZM650.04-15.2L666.29-15.2Q666.19-17.45 665.27-19.03 664.34-20.6 662.69-21.48 661.04-22.35 658.89-22.35L658.89-22.35Q656.49-22.35 654.72-21.25 652.94-20.15 651.94-18.18 650.94-16.2 650.94-13.55L650.94-13.55Q650.94-10.7 652.02-8.6 653.09-6.5 655.02-5.35 656.94-4.2 659.44-4.2L659.44-4.2Q663.89-4.2 666.94-7.35L666.94-7.35 669.99-4.3Q668.04-2.15 665.24-0.98 662.44 0.2 658.99 0.2L658.99 0.2Q654.89 0.2 651.84-1.5 648.79-3.2 647.09-6.23 645.39-9.25 645.39-13.25L645.39-13.25Q645.39-17.25 647.09-20.28 648.79-23.3 651.84-25 654.89-26.7 658.84-26.75L658.84-26.75Q663.54-26.75 666.39-24.83 669.24-22.9 670.44-19.4 671.64-15.9 671.29-11.1L671.29-11.1 650.04-11.1 650.04-15.2ZM692.24-26.75L692.24-21.55Q689.39-21.7 687.31-20.58 685.24-19.45 684.11-17.45 682.99-15.45 682.99-12.85L682.99-12.85 681.39-13.05Q681.39-17.5 682.69-20.55 683.99-23.6 686.44-25.18 688.89-26.75 692.24-26.75L692.24-26.75ZM677.29 0L677.29-26.55 683.04-26.55 683.04 0 677.29 0Z" opacity="1" transform="matrix(1,0,0,1,0,0)" fill="#223fc0" class="slogan-text-1" data-fill-palette-color="secondary" id="text-1"></path></svg></g></svg></g></svg></g></svg></g><g></g></svg></g><defs></defs></svg><rect width="395.52" height="106.98637721696782" fill="none" stroke="none" visibility="hidden"></rect></g></svg></g></svg>